<?xml version="1.0" encoding="UTF-8"?> <svg xmlns="http://www.w3.org/2000/svg" xmlns:xlink="http://www.w3.org/1999/xlink" id="Layer_2" data-name="Layer 2" viewBox="0 0 76 41.75"><defs><style> .cls-1 { clip-path: url(#clippath); } .cls-2 { fill: none; } .cls-2, .cls-3 { stroke-width: 0px; } .cls-3 { fill: #1868f2; } </style><clipPath id="clippath"><rect class="cls-2" width="76" height="41.75"></rect></clipPath></defs><g id="Layer_1-2" data-name="Layer 1"><g class="cls-1"><g id="Group_24" data-name="Group 24"><path id="Path_9" data-name="Path 9" class="cls-3" d="m52.66,18.41L46.66.03l.07-.03s.06.07.09.11c1.84,3,3.68,6,5.51,8.99.95,1.55,1.89,3.11,2.83,4.67.1.17.2.24.41.16,1.59-.6,3.19-1.18,4.79-1.76,1.47-.54,2.95-1.07,4.42-1.62s2.93-1.09,4.39-1.63c2.09-.77,4.18-1.55,6.27-2.32.17-.07.36-.12.55-.14l-23.34,11.95"></path><path id="Path_10" data-name="Path 10" class="cls-3" d="m29.21,22.03l2.91-.89c2.04-.63,4.07-1.26,6.1-1.88,1.92-.58,3.84-1.16,5.76-1.74.41-.12.82-.24,1.23-.35.16-.02.28-.14.31-.3.26-1.16.53-2.32.81-3.48.33-1.4.67-2.8,1-4.19.25-1.05.49-2.11.74-3.16.01-.06.05-.12.11-.15.04.12.08.25.12.38.32.97.64,1.94.96,2.92.38,1.19.75,2.38,1.14,3.57.31.94.63,1.88.94,2.83.2.62.4,1.24.61,1.86.06.17,0,.23-.16.25-.53.1-1.05.19-1.58.29-1.13.22-2.26.44-3.38.66-1.06.21-2.12.41-3.18.62-1.59.31-3.17.62-4.76.93-1.21.24-2.43.47-3.64.71-1.2.24-2.39.48-3.59.72-.78.16-1.57.31-2.35.47-.03,0-.06,0-.09,0,0-.01,0-.02,0-.04"></path><path id="Path_11" data-name="Path 11" class="cls-3" d="m3.68,20.34H1.37V5.04h9.45v1.61H3.69v5.23h6.12v1.64H3.68v6.82Z"></path><path id="Path_12" data-name="Path 12" class="cls-3" d="m26.81,20.34V6.67h-4.22v-1.62h10.78v1.61h-4.22v13.68h-2.34Z"></path><path id="Path_13" data-name="Path 13" class="cls-3" d="m15.26,18.72h6.45v1.62h-8.75V5.05h2.3v13.67Z"></path><path id="Path_14" data-name="Path 14" class="cls-3" d="m8.35,33.96H3.36s-1.04,3.44-1.04,3.44H0s4.85-14.76,4.85-14.76h2.01l4.89,14.75h-2.33l-1.06-3.43Zm-4.36-2.06h3.73l-1.87-6.12-1.86,6.12Z"></path><path id="Path_15" data-name="Path 15" class="cls-3" d="m16.93,35.62c.5.01.98-.18,1.33-.54.35-.35.55-.83.56-1.33h2.03c-.02.67-.21,1.33-.56,1.91-.34.58-.83,1.07-1.41,1.4-.58.34-1.25.52-1.93.52-1.24.05-2.43-.51-3.19-1.49-.85-1.2-1.26-2.65-1.18-4.11v-.26c-.07-1.43.34-2.84,1.16-4.01.75-.99,1.94-1.55,3.18-1.51,1.05-.04,2.06.38,2.78,1.14.74.82,1.15,1.89,1.13,2.99h-2.03c0-.57-.2-1.11-.56-1.55-.33-.39-.82-.62-1.34-.61-.65-.02-1.27.31-1.61.87-.43.81-.63,1.72-.57,2.63v.39c-.06.92.13,1.84.56,2.66.34.57.96.9,1.62.88"></path><path id="Path_16" data-name="Path 16" class="cls-3" d="m28.19,37.37c-.12-.33-.21-.67-.25-1.02-1.14,1.42-3.2,1.64-4.62.51-.09-.07-.17-.14-.24-.22-.61-.62-.93-1.46-.91-2.33-.06-1.02.36-2.02,1.13-2.69.94-.68,2.09-1.02,3.25-.94h1.32v-.73c.02-.49-.12-.97-.42-1.36-.32-.36-.79-.55-1.26-.51-.44-.02-.87.13-1.2.42-.31.27-.48.66-.47,1.07h-2.15c0-.6.18-1.19.52-1.69.35-.53.84-.95,1.42-1.23.62-.3,1.31-.46,2-.45,1.89-.15,3.55,1.25,3.71,3.15.01.18.02.36,0,.54v4.94c-.02.8.1,1.6.37,2.36v.17h-2.19Zm-2.36-1.77c.43,0,.84-.12,1.2-.36.37-.23.66-.56.84-.95v-2.07h-1.16c-.64-.05-1.27.12-1.8.48-.4.33-.63.83-.6,1.35-.02.42.13.82.41,1.13.29.29.69.44,1.1.42"></path><path id="Path_17" data-name="Path 17" class="cls-3" d="m31.87,31.8c-.07-1.43.28-2.84,1.02-4.07.58-.97,1.62-1.55,2.75-1.54.97-.02,1.89.43,2.46,1.21v-5.61s2.14,0,2.14,0l.02,15.57h-1.95l-.11-1.14c-.57.86-1.54,1.36-2.57,1.34-1.12,0-2.15-.58-2.72-1.55-.76-1.27-1.12-2.74-1.04-4.21m2.15.21c-.05.9.15,1.8.56,2.61.31.59.93.95,1.6.93.87,0,1.64-.54,1.92-1.35v-4.68c-.29-.8-1.06-1.33-1.92-1.32-.67-.01-1.29.35-1.61.95-.43.89-.63,1.87-.56,2.85"></path><path id="Path_18" data-name="Path 18" class="cls-3" d="m46.71,37.55c-1.27.04-2.49-.5-3.31-1.47-.89-1.11-1.34-2.5-1.27-3.93v-.3c-.02-1.01.17-2,.55-2.93.32-.8.86-1.5,1.55-2.01.65-.47,1.43-.73,2.23-.72,1.18-.06,2.31.48,3.02,1.43.78,1.2,1.16,2.61,1.07,4.04v.99h-6.25c.02.79.3,1.55.79,2.15.43.51,1.08.8,1.75.79.99,0,1.9-.52,2.4-1.37l1.16,1.26c-.36.64-.89,1.17-1.53,1.53-.66.37-1.4.55-2.15.54m-.27-9.39c-.56-.01-1.1.25-1.43.71-.4.59-.64,1.27-.69,1.98h4.09v-.18c0-.67-.2-1.32-.58-1.87-.34-.42-.86-.66-1.4-.63"></path><path id="Path_19" data-name="Path 19" class="cls-3" d="m54.23,26.37l.06,1.14c.64-.88,1.67-1.39,2.76-1.35,1.15-.08,2.22.6,2.63,1.68.59-1.06,1.72-1.71,2.93-1.68.9-.07,1.78.3,2.36,1,.58.87.86,1.91.79,2.96v7.2s-2.14,0-2.14,0v-7.13c.04-.54-.11-1.08-.41-1.53-.34-.35-.83-.53-1.32-.49-.44-.02-.88.15-1.2.45-.32.33-.55.73-.65,1.18l.02,7.52h-2.15v-7.21c-.04-1.29-.61-1.93-1.74-1.93-.81-.03-1.54.45-1.83,1.21v7.94s-2.14,0-2.14,0v-10.96s2.02,0,2.02,0Z"></path><path id="Path_20" data-name="Path 20" class="cls-3" d="m71.32,33.79l1.94-7.44h2.29l-3.79,12.63c-.58,1.85-1.57,2.77-2.97,2.77-.35,0-.7-.07-1.04-.18v-1.91l.41.03c.44.03.87-.09,1.23-.34.32-.31.55-.7.65-1.14l.31-.94-3.37-10.9h2.32l2.03,7.43Z"></path></g></g></g></svg> 